<mxfile host="65bd71144e" modified="2020-11-12T15:39:05.234Z" agent="5.0 (Windows NT 10.0; Win64; x64) AppleWebKit/537.36 (KHTML, like Gecko) Code/1.51.1 Chrome/83.0.4103.122 Electron/9.3.3 Safari/537.36" etag="O5wGM_mcEaTlcg_uPGGo" version="13.6.5" pages="2">
    <diagram id="JRyV6HE06C1Jto2Ka0IH" name="第 1 页">
        <mxGraphModel dx="1534" dy="1731" grid="1" gridSize="10" guides="1" tooltips="1" connect="1" arrows="0" fold="1" page="1" pageScale="1" pageWidth="827" pageHeight="1169" background="#DAD2D8" math="0" shadow="0">
            <root>
                <mxCell id="0"/>
                <mxCell id="1" parent="0"/>
                <mxCell id="2" value="&lt;font style=&quot;font-size: 25px&quot;&gt;员工&lt;/font&gt;" style="rounded=0;whiteSpace=wrap;html=1;fillColor=#FAE5C7;strokeColor=#0F8B8D;fontColor=#143642;" parent="1" vertex="1">
                    <mxGeometry x="240" y="190" width="120" height="60" as="geometry"/>
                </mxCell>
                <mxCell id="17" style="edgeStyle=none;shape=link;rounded=0;orthogonalLoop=1;jettySize=auto;html=1;strokeColor=#A8201A;fontColor=#143642;labelBackgroundColor=#DAD2D8;width=516;" parent="1" edge="1">
                    <mxGeometry relative="1" as="geometry">
                        <mxPoint x="212" y="170" as="sourcePoint"/>
                        <mxPoint x="220" y="160" as="targetPoint"/>
                    </mxGeometry>
                </mxCell>
                <mxCell id="47" style="edgeStyle=orthogonalEdgeStyle;curved=0;rounded=1;sketch=0;orthogonalLoop=1;jettySize=auto;html=1;exitX=1;exitY=1;exitDx=0;exitDy=0;endArrow=none;endFill=0;strokeColor=#A8201A;fillColor=#FAE5C7;fontColor=#143642;" parent="1" source="3" edge="1">
                    <mxGeometry relative="1" as="geometry">
                        <mxPoint x="290" y="180" as="targetPoint"/>
                    </mxGeometry>
                </mxCell>
                <mxCell id="3" value="&lt;font style=&quot;font-size: 21px&quot;&gt;年龄&lt;/font&gt;" style="ellipse;whiteSpace=wrap;html=1;fillColor=#FAE5C7;strokeColor=#0F8B8D;fontColor=#143642;" parent="1" vertex="1">
                    <mxGeometry x="110" y="60" width="120" height="80" as="geometry"/>
                </mxCell>
                <mxCell id="13" style="edgeStyle=none;shape=link;rounded=0;orthogonalLoop=1;jettySize=auto;html=1;strokeColor=#A8201A;fontColor=#143642;labelBackgroundColor=#DAD2D8;" parent="1" edge="1">
                    <mxGeometry relative="1" as="geometry">
                        <mxPoint y="500" as="sourcePoint"/>
                        <mxPoint y="500" as="targetPoint"/>
                    </mxGeometry>
                </mxCell>
                <mxCell id="46" style="edgeStyle=orthogonalEdgeStyle;curved=0;rounded=1;sketch=0;orthogonalLoop=1;jettySize=auto;html=1;exitX=0.5;exitY=1;exitDx=0;exitDy=0;endArrow=none;endFill=0;strokeColor=#A8201A;fillColor=#FAE5C7;fontColor=#143642;" parent="1" source="4" edge="1">
                    <mxGeometry relative="1" as="geometry">
                        <mxPoint x="290" y="190" as="targetPoint"/>
                    </mxGeometry>
                </mxCell>
                <mxCell id="4" value="&lt;font style=&quot;font-size: 21px&quot;&gt;姓名&lt;br&gt;&lt;/font&gt;" style="ellipse;whiteSpace=wrap;html=1;fillColor=#FAE5C7;strokeColor=#0F8B8D;fontColor=#143642;" parent="1" vertex="1">
                    <mxGeometry x="260" y="40" width="120" height="80" as="geometry"/>
                </mxCell>
                <mxCell id="18" style="edgeStyle=none;shape=link;rounded=0;orthogonalLoop=1;jettySize=auto;html=1;exitX=1;exitY=0.5;exitDx=0;exitDy=0;entryX=0;entryY=0.5;entryDx=0;entryDy=0;strokeColor=#A8201A;fontColor=#143642;labelBackgroundColor=#DAD2D8;" parent="1" source="5" target="2" edge="1">
                    <mxGeometry relative="1" as="geometry"/>
                </mxCell>
                <mxCell id="5" value="&lt;font style=&quot;font-size: 21px&quot;&gt;出生日期&lt;/font&gt;" style="ellipse;whiteSpace=wrap;html=1;fillColor=#FAE5C7;strokeColor=#0F8B8D;fontColor=#143642;" parent="1" vertex="1">
                    <mxGeometry x="40" y="160" width="120" height="80" as="geometry"/>
                </mxCell>
                <mxCell id="19" style="edgeStyle=none;shape=link;rounded=0;orthogonalLoop=1;jettySize=auto;html=1;exitX=1;exitY=0;exitDx=0;exitDy=0;entryX=0.5;entryY=1;entryDx=0;entryDy=0;strokeColor=#A8201A;fontColor=#143642;labelBackgroundColor=#DAD2D8;" parent="1" source="7" target="2" edge="1">
                    <mxGeometry relative="1" as="geometry"/>
                </mxCell>
                <mxCell id="7" value="&lt;font style=&quot;font-size: 21px&quot;&gt;家庭地址&lt;/font&gt;" style="ellipse;whiteSpace=wrap;html=1;fillColor=#FAE5C7;strokeColor=#0F8B8D;fontColor=#143642;" parent="1" vertex="1">
                    <mxGeometry x="80" y="270" width="120" height="80" as="geometry"/>
                </mxCell>
                <mxCell id="14" style="edgeStyle=none;shape=link;rounded=0;orthogonalLoop=1;jettySize=auto;html=1;strokeColor=#A8201A;fontColor=#143642;labelBackgroundColor=#DAD2D8;" parent="1" edge="1">
                    <mxGeometry relative="1" as="geometry">
                        <mxPoint x="300" y="189.9999999999999" as="targetPoint"/>
                        <mxPoint x="300" y="190" as="sourcePoint"/>
                    </mxGeometry>
                </mxCell>
                <mxCell id="45" style="edgeStyle=orthogonalEdgeStyle;curved=0;rounded=1;sketch=0;orthogonalLoop=1;jettySize=auto;html=1;exitX=0;exitY=1;exitDx=0;exitDy=0;entryX=0.5;entryY=0;entryDx=0;entryDy=0;endArrow=none;endFill=0;strokeColor=#A8201A;fillColor=#FAE5C7;fontColor=#143642;" parent="1" source="8" target="2" edge="1">
                    <mxGeometry relative="1" as="geometry"/>
                </mxCell>
                <mxCell id="8" value="&lt;font style=&quot;font-size: 21px&quot;&gt;性别&lt;/font&gt;" style="ellipse;whiteSpace=wrap;html=1;fillColor=#FAE5C7;strokeColor=#0F8B8D;fontColor=#143642;" parent="1" vertex="1">
                    <mxGeometry x="400" y="60" width="120" height="80" as="geometry"/>
                </mxCell>
                <mxCell id="15" style="edgeStyle=none;shape=link;rounded=0;orthogonalLoop=1;jettySize=auto;html=1;entryX=1;entryY=0.25;entryDx=0;entryDy=0;strokeColor=#A8201A;fontColor=#143642;labelBackgroundColor=#DAD2D8;" parent="1" target="2" edge="1">
                    <mxGeometry relative="1" as="geometry">
                        <mxPoint x="350" y="200" as="sourcePoint"/>
                    </mxGeometry>
                </mxCell>
                <mxCell id="44" style="edgeStyle=orthogonalEdgeStyle;curved=0;rounded=1;sketch=0;orthogonalLoop=1;jettySize=auto;html=1;exitX=0;exitY=0.5;exitDx=0;exitDy=0;entryX=1;entryY=0.5;entryDx=0;entryDy=0;endArrow=none;endFill=0;strokeColor=#A8201A;fillColor=#FAE5C7;fontColor=#143642;" parent="1" source="9" target="2" edge="1">
                    <mxGeometry relative="1" as="geometry"/>
                </mxCell>
                <mxCell id="9" value="&lt;font style=&quot;font-size: 21px&quot;&gt;电话号码&lt;/font&gt;" style="ellipse;whiteSpace=wrap;html=1;fillColor=#FAE5C7;strokeColor=#0F8B8D;fontColor=#143642;" parent="1" vertex="1">
                    <mxGeometry x="480" y="150" width="120" height="80" as="geometry"/>
                </mxCell>
                <mxCell id="16" style="edgeStyle=none;shape=link;rounded=0;orthogonalLoop=1;jettySize=auto;html=1;entryX=1;entryY=0.5;entryDx=0;entryDy=0;strokeColor=#A8201A;fontColor=#143642;labelBackgroundColor=#DAD2D8;" parent="1" target="2" edge="1">
                    <mxGeometry relative="1" as="geometry">
                        <mxPoint x="360" y="220" as="sourcePoint"/>
                    </mxGeometry>
                </mxCell>
                <mxCell id="43" style="edgeStyle=orthogonalEdgeStyle;curved=0;rounded=1;sketch=0;orthogonalLoop=1;jettySize=auto;html=1;exitX=0;exitY=0.5;exitDx=0;exitDy=0;entryX=1;entryY=0.5;entryDx=0;entryDy=0;strokeColor=#A8201A;fillColor=#FAE5C7;fontColor=#143642;endArrow=none;endFill=0;" parent="1" source="10" target="2" edge="1">
                    <mxGeometry relative="1" as="geometry"/>
                </mxCell>
                <mxCell id="10" value="&lt;font style=&quot;font-size: 21px&quot;&gt;所在部门&lt;/font&gt;" style="ellipse;whiteSpace=wrap;html=1;fillColor=#FAE5C7;strokeColor=#0F8B8D;fontColor=#143642;" parent="1" vertex="1">
                    <mxGeometry x="460" y="240" width="120" height="80" as="geometry"/>
                </mxCell>
                <mxCell id="20" value="&lt;font style=&quot;font-size: 23px&quot;&gt;员工考勤&lt;/font&gt;" style="rounded=0;whiteSpace=wrap;html=1;fillColor=#FAE5C7;strokeColor=#0F8B8D;fontColor=#143642;" parent="1" vertex="1">
                    <mxGeometry x="294" y="555" width="120" height="60" as="geometry"/>
                </mxCell>
                <mxCell id="22" style="edgeStyle=none;shape=link;rounded=0;orthogonalLoop=1;jettySize=auto;html=1;exitX=0.5;exitY=0;exitDx=0;exitDy=0;entryX=0.5;entryY=1;entryDx=0;entryDy=0;strokeColor=#A8201A;fontColor=#143642;labelBackgroundColor=#DAD2D8;" parent="1" source="21" target="2" edge="1">
                    <mxGeometry relative="1" as="geometry"/>
                </mxCell>
                <mxCell id="26" style="edgeStyle=orthogonalEdgeStyle;shape=link;rounded=0;orthogonalLoop=1;jettySize=auto;html=1;exitX=0.5;exitY=1;exitDx=0;exitDy=0;entryX=0.5;entryY=0;entryDx=0;entryDy=0;strokeColor=#A8201A;fontColor=#143642;labelBackgroundColor=#DAD2D8;" parent="1" source="21" target="20" edge="1">
                    <mxGeometry relative="1" as="geometry"/>
                </mxCell>
                <mxCell id="21" value="&lt;font style=&quot;font-size: 21px&quot;&gt;工号&lt;br&gt;&lt;/font&gt;" style="ellipse;whiteSpace=wrap;html=1;fillColor=#FAE5C7;strokeColor=#0F8B8D;fontColor=#143642;" parent="1" vertex="1">
                    <mxGeometry x="260" y="310" width="120" height="80" as="geometry"/>
                </mxCell>
                <mxCell id="31" style="edgeStyle=orthogonalEdgeStyle;shape=link;rounded=0;orthogonalLoop=1;jettySize=auto;html=1;exitX=0;exitY=0.5;exitDx=0;exitDy=0;entryX=0.5;entryY=0;entryDx=0;entryDy=0;strokeColor=#A8201A;fontColor=#143642;labelBackgroundColor=#DAD2D8;" parent="1" source="27" target="20" edge="1">
                    <mxGeometry relative="1" as="geometry"/>
                </mxCell>
                <mxCell id="27" value="&lt;font style=&quot;font-size: 21px&quot;&gt;出勤日期&lt;/font&gt;" style="ellipse;whiteSpace=wrap;html=1;fillColor=#FAE5C7;strokeColor=#0F8B8D;fontColor=#143642;" parent="1" vertex="1">
                    <mxGeometry x="470" y="390" width="120" height="80" as="geometry"/>
                </mxCell>
                <mxCell id="32" style="edgeStyle=orthogonalEdgeStyle;shape=link;rounded=0;orthogonalLoop=1;jettySize=auto;html=1;exitX=0;exitY=0.5;exitDx=0;exitDy=0;entryX=1;entryY=0.25;entryDx=0;entryDy=0;strokeColor=#A8201A;fontColor=#143642;labelBackgroundColor=#DAD2D8;" parent="1" source="28" target="20" edge="1">
                    <mxGeometry relative="1" as="geometry"/>
                </mxCell>
                <mxCell id="28" value="&lt;font style=&quot;font-size: 21px&quot;&gt;缺勤次数(迟到或早退)&lt;/font&gt;" style="ellipse;whiteSpace=wrap;html=1;fillColor=#FAE5C7;strokeColor=#0F8B8D;fontColor=#143642;" parent="1" vertex="1">
                    <mxGeometry x="480" y="500" width="190" height="110" as="geometry"/>
                </mxCell>
                <mxCell id="33" style="edgeStyle=orthogonalEdgeStyle;shape=link;rounded=0;orthogonalLoop=1;jettySize=auto;html=1;exitX=0;exitY=0;exitDx=0;exitDy=0;strokeColor=#A8201A;fontColor=#143642;labelBackgroundColor=#DAD2D8;" parent="1" source="29" target="20" edge="1">
                    <mxGeometry relative="1" as="geometry"/>
                </mxCell>
                <mxCell id="29" value="&lt;span style=&quot;font-size: 21px&quot;&gt;上班时间&lt;/span&gt;" style="ellipse;whiteSpace=wrap;html=1;fillColor=#FAE5C7;strokeColor=#0F8B8D;fontColor=#143642;" parent="1" vertex="1">
                    <mxGeometry x="440" y="650" width="120" height="80" as="geometry"/>
                </mxCell>
                <mxCell id="34" style="edgeStyle=orthogonalEdgeStyle;shape=link;rounded=0;orthogonalLoop=1;jettySize=auto;html=1;exitX=0.5;exitY=0;exitDx=0;exitDy=0;strokeColor=#A8201A;fontColor=#143642;labelBackgroundColor=#DAD2D8;" parent="1" source="30" edge="1">
                    <mxGeometry relative="1" as="geometry">
                        <mxPoint x="350" y="620" as="targetPoint"/>
                    </mxGeometry>
                </mxCell>
                <mxCell id="30" value="&lt;font style=&quot;font-size: 21px&quot;&gt;下班时间&lt;/font&gt;" style="ellipse;whiteSpace=wrap;html=1;fillColor=#FAE5C7;strokeColor=#0F8B8D;fontColor=#143642;" parent="1" vertex="1">
                    <mxGeometry x="220" y="670" width="120" height="80" as="geometry"/>
                </mxCell>
                <mxCell id="35" value="" style="endArrow=none;html=1;strokeColor=#A8201A;fillColor=#FAE5C7;fontColor=#143642;" parent="1" edge="1">
                    <mxGeometry width="50" height="50" relative="1" as="geometry">
                        <mxPoint x="430" y="400" as="sourcePoint"/>
                        <mxPoint x="480" y="350" as="targetPoint"/>
                    </mxGeometry>
                </mxCell>
                <mxCell id="38" value="" style="endArrow=none;html=1;strokeColor=#A8201A;fillColor=#FAE5C7;fontColor=#143642;" parent="1" edge="1">
                    <mxGeometry width="50" height="50" relative="1" as="geometry">
                        <mxPoint x="430" y="400" as="sourcePoint"/>
                        <mxPoint x="480" y="350" as="targetPoint"/>
                    </mxGeometry>
                </mxCell>
            </root>
        </mxGraphModel>
    </diagram>
    <diagram id="iDi1e0Q8zoHZRZ2YxIY_" name="第 2 页">
        <mxGraphModel dx="707" dy="562" grid="1" gridSize="10" guides="1" tooltips="1" connect="1" arrows="1" fold="1" page="1" pageScale="1" pageWidth="827" pageHeight="1169" background="#F1FAEE" math="0" shadow="0">
            <root>
                <mxCell id="msw8Nx4GFnR7tpRIPwg4-0"/>
                <mxCell id="msw8Nx4GFnR7tpRIPwg4-1" parent="msw8Nx4GFnR7tpRIPwg4-0"/>
                <mxCell id="msw8Nx4GFnR7tpRIPwg4-2" value="&lt;font style=&quot;font-size: 23px&quot;&gt;员工&lt;/font&gt;" style="rounded=0;whiteSpace=wrap;html=1;fillColor=#A8DADC;strokeColor=#457B9D;fontColor=#1D3557;" parent="msw8Nx4GFnR7tpRIPwg4-1" vertex="1">
                    <mxGeometry x="210" y="90" width="120" height="60" as="geometry"/>
                </mxCell>
                <mxCell id="msw8Nx4GFnR7tpRIPwg4-3" value="&lt;font style=&quot;font-size: 24px&quot;&gt;性别&lt;/font&gt;" style="ellipse;whiteSpace=wrap;html=1;fillColor=#A8DADC;strokeColor=#457B9D;fontColor=#1D3557;" parent="msw8Nx4GFnR7tpRIPwg4-1" vertex="1">
                    <mxGeometry x="60" y="120" width="80" height="50" as="geometry"/>
                </mxCell>
                <mxCell id="msw8Nx4GFnR7tpRIPwg4-4" value="" style="endArrow=none;html=1;strokeColor=#457B9D;fillColor=#A8DADC;fontColor=#1D3557;entryX=1;entryY=0.5;entryDx=0;entryDy=0;exitX=0;exitY=0.5;exitDx=0;exitDy=0;labelBackgroundColor=#F1FAEE;" parent="msw8Nx4GFnR7tpRIPwg4-1" source="msw8Nx4GFnR7tpRIPwg4-2" target="msw8Nx4GFnR7tpRIPwg4-3" edge="1">
                    <mxGeometry width="50" height="50" relative="1" as="geometry">
                        <mxPoint x="260" y="70" as="sourcePoint"/>
                        <mxPoint x="310" y="20" as="targetPoint"/>
                    </mxGeometry>
                </mxCell>
                <mxCell id="msw8Nx4GFnR7tpRIPwg4-5" value="&lt;font style=&quot;font-size: 24px&quot;&gt;姓名&lt;/font&gt;" style="ellipse;whiteSpace=wrap;html=1;fillColor=#A8DADC;strokeColor=#457B9D;fontColor=#1D3557;" parent="msw8Nx4GFnR7tpRIPwg4-1" vertex="1">
                    <mxGeometry x="100" y="178" width="80" height="50" as="geometry"/>
                </mxCell>
                <mxCell id="UxVqv2r5onQc9pwvo9AP-0" value="&lt;font style=&quot;font-size: 24px&quot;&gt;工号&lt;/font&gt;" style="ellipse;whiteSpace=wrap;html=1;fillColor=#A8DADC;strokeColor=#457B9D;fontColor=#1D3557;" parent="msw8Nx4GFnR7tpRIPwg4-1" vertex="1">
                    <mxGeometry x="190" y="210" width="110" height="50" as="geometry"/>
                </mxCell>
                <mxCell id="UxVqv2r5onQc9pwvo9AP-1" value="&lt;font style=&quot;font-size: 24px&quot;&gt;所在部门&lt;/font&gt;" style="ellipse;whiteSpace=wrap;html=1;fillColor=#A8DADC;strokeColor=#457B9D;fontColor=#1D3557;" parent="msw8Nx4GFnR7tpRIPwg4-1" vertex="1">
                    <mxGeometry x="310" y="200" width="110" height="50" as="geometry"/>
                </mxCell>
                <mxCell id="UxVqv2r5onQc9pwvo9AP-2" value="&lt;font style=&quot;font-size: 24px&quot;&gt;电话号码&lt;/font&gt;" style="ellipse;whiteSpace=wrap;html=1;fillColor=#A8DADC;strokeColor=#457B9D;fontColor=#1D3557;" parent="msw8Nx4GFnR7tpRIPwg4-1" vertex="1">
                    <mxGeometry x="380" y="150" width="110" height="50" as="geometry"/>
                </mxCell>
                <mxCell id="UxVqv2r5onQc9pwvo9AP-3" value="" style="endArrow=none;html=1;strokeColor=#457B9D;fillColor=#A8DADC;fontColor=#1D3557;exitX=0;exitY=0.5;exitDx=0;exitDy=0;labelBackgroundColor=#F1FAEE;" parent="msw8Nx4GFnR7tpRIPwg4-1" source="msw8Nx4GFnR7tpRIPwg4-2" edge="1">
                    <mxGeometry width="50" height="50" relative="1" as="geometry">
                        <mxPoint x="220" y="130" as="sourcePoint"/>
                        <mxPoint x="162" y="182" as="targetPoint"/>
                    </mxGeometry>
                </mxCell>
                <mxCell id="UxVqv2r5onQc9pwvo9AP-4" value="" style="endArrow=none;html=1;strokeColor=#457B9D;fillColor=#A8DADC;fontColor=#1D3557;entryX=0.5;entryY=0;entryDx=0;entryDy=0;exitX=0.5;exitY=1;exitDx=0;exitDy=0;labelBackgroundColor=#F1FAEE;" parent="msw8Nx4GFnR7tpRIPwg4-1" source="msw8Nx4GFnR7tpRIPwg4-2" target="UxVqv2r5onQc9pwvo9AP-0" edge="1">
                    <mxGeometry width="50" height="50" relative="1" as="geometry">
                        <mxPoint x="230" y="140" as="sourcePoint"/>
                        <mxPoint x="160" y="165" as="targetPoint"/>
                    </mxGeometry>
                </mxCell>
                <mxCell id="UxVqv2r5onQc9pwvo9AP-5" value="" style="endArrow=none;html=1;strokeColor=#457B9D;fillColor=#A8DADC;fontColor=#1D3557;entryX=0;entryY=0;entryDx=0;entryDy=0;exitX=0.5;exitY=1;exitDx=0;exitDy=0;labelBackgroundColor=#F1FAEE;" parent="msw8Nx4GFnR7tpRIPwg4-1" source="msw8Nx4GFnR7tpRIPwg4-2" target="UxVqv2r5onQc9pwvo9AP-1" edge="1">
                    <mxGeometry width="50" height="50" relative="1" as="geometry">
                        <mxPoint x="280" y="160" as="sourcePoint"/>
                        <mxPoint x="255" y="220" as="targetPoint"/>
                    </mxGeometry>
                </mxCell>
                <mxCell id="UxVqv2r5onQc9pwvo9AP-6" value="" style="endArrow=none;html=1;strokeColor=#457B9D;fillColor=#A8DADC;fontColor=#1D3557;entryX=0;entryY=0.5;entryDx=0;entryDy=0;labelBackgroundColor=#F1FAEE;" parent="msw8Nx4GFnR7tpRIPwg4-1" target="UxVqv2r5onQc9pwvo9AP-2" edge="1">
                    <mxGeometry width="50" height="50" relative="1" as="geometry">
                        <mxPoint x="270" y="150" as="sourcePoint"/>
                        <mxPoint x="265" y="230" as="targetPoint"/>
                    </mxGeometry>
                </mxCell>
                <mxCell id="UxVqv2r5onQc9pwvo9AP-7" value="&lt;font style=&quot;font-size: 24px&quot;&gt;家庭住址&lt;/font&gt;" style="ellipse;whiteSpace=wrap;html=1;fillColor=#A8DADC;strokeColor=#457B9D;fontColor=#1D3557;" parent="msw8Nx4GFnR7tpRIPwg4-1" vertex="1">
                    <mxGeometry x="390" y="80" width="110" height="50" as="geometry"/>
                </mxCell>
                <mxCell id="UxVqv2r5onQc9pwvo9AP-8" value="&lt;font style=&quot;font-size: 24px&quot;&gt;出生日期&lt;/font&gt;" style="ellipse;whiteSpace=wrap;html=1;fillColor=#A8DADC;strokeColor=#457B9D;fontColor=#1D3557;" parent="msw8Nx4GFnR7tpRIPwg4-1" vertex="1">
                    <mxGeometry x="320" y="20" width="110" height="50" as="geometry"/>
                </mxCell>
                <mxCell id="UxVqv2r5onQc9pwvo9AP-11" value="&lt;font style=&quot;font-size: 24px&quot;&gt;政治面貌&lt;/font&gt;" style="ellipse;whiteSpace=wrap;html=1;fillColor=#A8DADC;strokeColor=#457B9D;fontColor=#1D3557;" parent="msw8Nx4GFnR7tpRIPwg4-1" vertex="1">
                    <mxGeometry x="160" y="20" width="110" height="50" as="geometry"/>
                </mxCell>
                <mxCell id="UxVqv2r5onQc9pwvo9AP-12" value="" style="endArrow=none;html=1;strokeColor=#457B9D;fillColor=#A8DADC;fontColor=#1D3557;entryX=0.5;entryY=1;entryDx=0;entryDy=0;exitX=0.5;exitY=0;exitDx=0;exitDy=0;labelBackgroundColor=#F1FAEE;" parent="msw8Nx4GFnR7tpRIPwg4-1" source="msw8Nx4GFnR7tpRIPwg4-2" target="UxVqv2r5onQc9pwvo9AP-11" edge="1">
                    <mxGeometry width="50" height="50" relative="1" as="geometry">
                        <mxPoint x="210" y="240" as="sourcePoint"/>
                        <mxPoint x="260" y="190" as="targetPoint"/>
                    </mxGeometry>
                </mxCell>
                <mxCell id="UxVqv2r5onQc9pwvo9AP-13" value="" style="endArrow=none;html=1;strokeColor=#457B9D;fillColor=#A8DADC;fontColor=#1D3557;entryX=0.5;entryY=1;entryDx=0;entryDy=0;exitX=0.5;exitY=0;exitDx=0;exitDy=0;labelBackgroundColor=#F1FAEE;" parent="msw8Nx4GFnR7tpRIPwg4-1" source="msw8Nx4GFnR7tpRIPwg4-2" target="UxVqv2r5onQc9pwvo9AP-8" edge="1">
                    <mxGeometry width="50" height="50" relative="1" as="geometry">
                        <mxPoint x="210" y="240" as="sourcePoint"/>
                        <mxPoint x="260" y="190" as="targetPoint"/>
                    </mxGeometry>
                </mxCell>
                <mxCell id="UxVqv2r5onQc9pwvo9AP-14" value="" style="endArrow=none;html=1;strokeColor=#457B9D;fillColor=#A8DADC;fontColor=#1D3557;entryX=0;entryY=0.5;entryDx=0;entryDy=0;exitX=1;exitY=0.5;exitDx=0;exitDy=0;labelBackgroundColor=#F1FAEE;" parent="msw8Nx4GFnR7tpRIPwg4-1" source="msw8Nx4GFnR7tpRIPwg4-2" target="UxVqv2r5onQc9pwvo9AP-7" edge="1">
                    <mxGeometry width="50" height="50" relative="1" as="geometry">
                        <mxPoint x="210" y="240" as="sourcePoint"/>
                        <mxPoint x="260" y="190" as="targetPoint"/>
                    </mxGeometry>
                </mxCell>
                <mxCell id="VMwdDeBXWBZ6iF7_urtB-0" value="&lt;font style=&quot;font-size: 23px&quot;&gt;员工考勤&lt;/font&gt;" style="rounded=0;whiteSpace=wrap;html=1;fillColor=#A8DADC;strokeColor=#457B9D;fontColor=#1D3557;" parent="msw8Nx4GFnR7tpRIPwg4-1" vertex="1">
                    <mxGeometry x="200" y="340" width="120" height="60" as="geometry"/>
                </mxCell>
                <mxCell id="VMwdDeBXWBZ6iF7_urtB-1" value="&lt;font style=&quot;font-size: 24px&quot;&gt;下班时间&lt;/font&gt;" style="ellipse;whiteSpace=wrap;html=1;fillColor=#A8DADC;strokeColor=#457B9D;fontColor=#1D3557;" parent="msw8Nx4GFnR7tpRIPwg4-1" vertex="1">
                    <mxGeometry x="80" y="450" width="110" height="50" as="geometry"/>
                </mxCell>
                <mxCell id="VMwdDeBXWBZ6iF7_urtB-2" value="&lt;font style=&quot;font-size: 24px&quot;&gt;上班时间&lt;/font&gt;" style="ellipse;whiteSpace=wrap;html=1;fillColor=#A8DADC;strokeColor=#457B9D;fontColor=#1D3557;" parent="msw8Nx4GFnR7tpRIPwg4-1" vertex="1">
                    <mxGeometry x="215" y="450" width="110" height="50" as="geometry"/>
                </mxCell>
                <mxCell id="VMwdDeBXWBZ6iF7_urtB-3" value="&lt;font style=&quot;font-size: 24px&quot;&gt;缺勤次数(早退或迟到)&lt;/font&gt;" style="ellipse;whiteSpace=wrap;html=1;fillColor=#A8DADC;strokeColor=#457B9D;fontColor=#1D3557;" parent="msw8Nx4GFnR7tpRIPwg4-1" vertex="1">
                    <mxGeometry x="350" y="410" width="230" height="110" as="geometry"/>
                </mxCell>
                <mxCell id="VMwdDeBXWBZ6iF7_urtB-4" value="&lt;span style=&quot;font-size: 24px&quot;&gt;出勤日期&lt;/span&gt;" style="ellipse;whiteSpace=wrap;html=1;fillColor=#A8DADC;strokeColor=#457B9D;fontColor=#1D3557;" parent="msw8Nx4GFnR7tpRIPwg4-1" vertex="1">
                    <mxGeometry x="400" y="340" width="110" height="50" as="geometry"/>
                </mxCell>
                <mxCell id="VMwdDeBXWBZ6iF7_urtB-5" value="" style="endArrow=none;html=1;strokeColor=#457B9D;fillColor=#A8DADC;fontColor=#1D3557;exitX=0.5;exitY=0;exitDx=0;exitDy=0;entryX=0.25;entryY=1;entryDx=0;entryDy=0;" parent="msw8Nx4GFnR7tpRIPwg4-1" source="VMwdDeBXWBZ6iF7_urtB-1" target="VMwdDeBXWBZ6iF7_urtB-0" edge="1">
                    <mxGeometry width="50" height="50" relative="1" as="geometry">
                        <mxPoint x="210" y="240" as="sourcePoint"/>
                        <mxPoint x="260" y="190" as="targetPoint"/>
                    </mxGeometry>
                </mxCell>
                <mxCell id="VMwdDeBXWBZ6iF7_urtB-6" value="" style="endArrow=none;html=1;strokeColor=#457B9D;fillColor=#A8DADC;fontColor=#1D3557;exitX=0.5;exitY=0;exitDx=0;exitDy=0;entryX=0.5;entryY=1;entryDx=0;entryDy=0;" parent="msw8Nx4GFnR7tpRIPwg4-1" source="VMwdDeBXWBZ6iF7_urtB-2" target="VMwdDeBXWBZ6iF7_urtB-0" edge="1">
                    <mxGeometry width="50" height="50" relative="1" as="geometry">
                        <mxPoint x="210" y="240" as="sourcePoint"/>
                        <mxPoint x="260" y="190" as="targetPoint"/>
                    </mxGeometry>
                </mxCell>
                <mxCell id="VMwdDeBXWBZ6iF7_urtB-7" value="" style="endArrow=none;html=1;strokeColor=#457B9D;fillColor=#A8DADC;fontColor=#1D3557;exitX=0;exitY=0;exitDx=0;exitDy=0;entryX=1;entryY=0.5;entryDx=0;entryDy=0;" parent="msw8Nx4GFnR7tpRIPwg4-1" source="VMwdDeBXWBZ6iF7_urtB-3" target="VMwdDeBXWBZ6iF7_urtB-0" edge="1">
                    <mxGeometry width="50" height="50" relative="1" as="geometry">
                        <mxPoint x="210" y="240" as="sourcePoint"/>
                        <mxPoint x="260" y="190" as="targetPoint"/>
                    </mxGeometry>
                </mxCell>
                <mxCell id="VMwdDeBXWBZ6iF7_urtB-8" value="" style="endArrow=none;html=1;strokeColor=#457B9D;fillColor=#A8DADC;fontColor=#1D3557;entryX=0;entryY=0.5;entryDx=0;entryDy=0;exitX=1;exitY=0.5;exitDx=0;exitDy=0;" parent="msw8Nx4GFnR7tpRIPwg4-1" source="VMwdDeBXWBZ6iF7_urtB-0" target="VMwdDeBXWBZ6iF7_urtB-4" edge="1">
                    <mxGeometry width="50" height="50" relative="1" as="geometry">
                        <mxPoint x="210" y="240" as="sourcePoint"/>
                        <mxPoint x="260" y="190" as="targetPoint"/>
                    </mxGeometry>
                </mxCell>
                <mxCell id="UxefrgGcHd4G3vRmiGjz-0" value="" style="endArrow=none;html=1;exitX=0.5;exitY=0;exitDx=0;exitDy=0;entryX=0.5;entryY=1;entryDx=0;entryDy=0;fillColor=#a20025;strokeColor=#6F0000;" edge="1" parent="msw8Nx4GFnR7tpRIPwg4-1" source="VMwdDeBXWBZ6iF7_urtB-0" target="UxefrgGcHd4G3vRmiGjz-1">
                    <mxGeometry width="50" height="50" relative="1" as="geometry">
                        <mxPoint x="270" y="250" as="sourcePoint"/>
                        <mxPoint x="320" y="200" as="targetPoint"/>
                    </mxGeometry>
                </mxCell>
                <mxCell id="UxefrgGcHd4G3vRmiGjz-1" value="" style="rhombus;whiteSpace=wrap;html=1;" vertex="1" parent="msw8Nx4GFnR7tpRIPwg4-1">
                    <mxGeometry x="70" y="260" width="80" height="80" as="geometry"/>
                </mxCell>
            </root>
        </mxGraphModel>
    </diagram>
</mxfile>